.
..............................Site Info...........................

 -   http://www.scenetime.com  *_*   

SceneTime is going to Close sign up on march/1, hurry up! get in before the doors are closed.

     We care to share . Join us on  http://www.scenetime.com 

    Be the first to get new release at  http://www.scenetime.com

        Seed back for speed


...................................NFO:.................................................[IMG]http://www1.picfront.org/token/rLVb/2012/03/02/2037667.gif[/IMG]

 
TITLE: 

Sket 2011 DVDRiP AC3 XViD v2 - INSPiRAL

IMDB: 
 
http://www.imdb.com/title/tt1658820/


SOURCES:

VIDEO -  Legend THANKS
AUDIO -  Legend THANKS
SUBS  - None Add

STATS:

Video
ID                                       : 0
Format                                   : MPEG-4 Visual
Format profile                           : Advanced Simple@L5
Format settings, BVOP                    : 2
Format settings, QPel                    : No
Format settings, GMC                     : No warppoints
Format settings, Matrix                  : Default (MPEG)
Muxing mode                              : Packed bitstream
Codec ID                                 : XVID
Codec ID/Hint                            : XviD
Duration                                 : 1h 19mn
Bit rate                                 : 905 Kbps
Width                                    : 720 pixels
Height                                   : 304 pixels
Display aspect ratio                     : 2.35:1
Frame rate                               : 25.000 fps
Color space                              : YUV
Chroma subsampling                       : 4:2:0
Bit depth                                : 8 bits
Scan type                                : Progressive
Compression mode                         : Lossy
Bits/(Pixel*Frame)                       : 0.165
Stream size                              : 517 MiB (66%)
Writing library                          : XviD 64

Audio
ID                                       : 1
Format                                   : AC-3
Format/Info                              : Audio Coding 3
Mode extension                           : CM (complete main)
Codec ID                                 : 2000
Duration                                 : 1h 19mn
Bit rate mode                            : Constant
Bit rate                                 : 448 Kbps
Channel(s)                               : 6 channels
Channel positions                        : Front: L C R, Side: L R, LFE
Sampling rate                            : 48.0 KHz
Bit depth                                : 16 bits
Compression mode                         : Lossy
Stream size                              : 256 MiB (33%)
Alignment                                : Aligned on interleaves
Interleave, duration                     : 40 ms (1.00 video frame)
Interleave, preload duration             : 512 ms


NOTES:

Nothing fancy done here,just ripped the right way ......
Audio encoded to AC3 and remuxed,too our rip.

Ok this is just a smaller sized rip....we've been asked by a few to do some so thought we'd give it ago.Nothing special done and also tried to keep the untouched audio track.
This is just more of a testing period for these smaller rips to see how they turn out.


SCREENS:

[IMG]http://i.imgur.com/85j68.png[/IMG]
[IMG]http://i.imgur.com/PfXtk.png[/IMG]
[IMG]http://i.imgur.com/hyx2b.png[/IMG]
[IMG]http://i.imgur.com/55sh0.png[/IMG]

GREETZ: 

Past,Present and Future

[IMG]http://www1.picfront.org/token/rLVb/2012/03/02/2037667.gif[/IMG]